<?xml version="1.0" encoding="UTF-8" standalone="no"?>
<!-- Created with Inkscape (http://www.inkscape.org/) -->

<svg
   xmlns:dc="http://purl.org/dc/elements/1.1/"
   xmlns:cc="http://creativecommons.org/ns#"
   xmlns:rdf="http://www.w3.org/1999/02/22-rdf-syntax-ns#"
   xmlns:svg="http://www.w3.org/2000/svg"
   xmlns="http://www.w3.org/2000/svg"
   xmlns:sodipodi="http://sodipodi.sourceforge.net/DTD/sodipodi-0.dtd"
   xmlns:inkscape="http://www.inkscape.org/namespaces/inkscape"
   version="1.1"
   id="svg2"
   width="85.333336"
   height="85.333336"
   viewBox="0 0 85.333336 85.333336"
   sodipodi:docname="Achaekek.svg"
   inkscape:version="0.92.3 (2405546, 2018-03-11)">
  <metadata
     id="metadata8">
    <rdf:RDF>
      <cc:Work
         rdf:about="">
        <dc:format>image/svg+xml</dc:format>
        <dc:type
           rdf:resource="http://purl.org/dc/dcmitype/StillImage" />
        <dc:title></dc:title>
      </cc:Work>
    </rdf:RDF>
  </metadata>
  <defs
     id="defs6" />
  <sodipodi:namedview
     pagecolor="#ffffff"
     bordercolor="#666666"
     borderopacity="1"
     objecttolerance="10"
     gridtolerance="10"
     guidetolerance="10"
     inkscape:pageopacity="0"
     inkscape:pageshadow="2"
     inkscape:window-width="1920"
     inkscape:window-height="1017"
     id="namedview4"
     showgrid="false"
     inkscape:zoom="7.8223685"
     inkscape:cx="70.341075"
     inkscape:cy="65.331995"
     inkscape:window-x="-8"
     inkscape:window-y="-8"
     inkscape:window-maximized="1"
     inkscape:current-layer="svg2" />
  <g
     id="g3744"
     transform="matrix(0.33303883,0.07567308,-0.07567308,0.33303883,-53.628863,12.801471)">
    <path
       style="fill:#a8989a"
       d="m 243.32758,146.01655 c -2.84677,-2.51947 -6.69755,-7.47343 -8.98282,-11.55623 -2.2,-3.93046 -5.74955,-9.93218 -7.88789,-13.33715 -2.13834,-3.40497 -4.43121,-7.76717 -5.09527,-9.69378 -0.80238,-2.32792 -1.93014,-3.6101 -3.3621,-3.82246 -1.95751,-0.2903 -2.15474,-0.92639 -2.15474,-6.94918 0,-4.18613 -0.97045,-9.98951 -2.63301,-15.74556 -2.26644,-7.84679 -2.92774,-9.10687 -4.75,-9.05082 -2.27914,0.0701 -2.29021,-0.0326 -1.55455,-14.43489 0.42442,-8.30913 -2.00309,-20.17172 -4.24799,-20.75877 -2.06926,-0.54113 -2.30299,-3.31847 -0.91352,-10.85474 0.53985,-2.92808 0.53087,-7.89235 -0.0224,-12.38649 -1.1862,-9.63514 -1.1206,-22.26217 0.22599,-43.5 1.76496,-27.836099 7.95836,-45.5 15.95344,-45.5 3.47458,0 8.77351,5.742171 12.96948,14.054334 1.69734,3.362424 4.78806,7.988235 6.86826,10.279582 2.08019,2.291346 6.74742,8.235624 10.37162,13.209504 6.91697,9.49292 18.13107,20.82503 30.73269,31.0561 7.78003,6.3165 11.45468,7.65926 20.29906,7.41751 6.05205,-0.16542 8.95855,-1.63 8.16936,-4.11653 -0.58196,-1.83359 -0.36992,-2.00813 1.68286,-1.3852 3.82223,1.15989 8.20195,4.1429 12.02497,8.19017 1.97136,2.08699 5.6256,5.48074 8.12052,7.54166 10.16977,8.4007 24.34423,31.53791 28.28645,46.17244 2.07929,7.71888 -0.47724,8.67225 -4.42407,1.6498 -1.18639,-2.11089 -3.32013,-4.60005 -4.74164,-5.53146 -1.42151,-0.93141 -3.23469,-3.24944 -4.02928,-5.15118 -0.81567,-1.95218 -2.52632,-3.86893 -3.92877,-4.40214 -1.36622,-0.51944 -3.00074,-2.07847 -3.63227,-3.46451 -0.63152,-1.38604 -1.71833,-2.52008 -2.41512,-2.52008 -0.6968,0 -2.15183,-1.125 -3.23341,-2.5 -1.11505,-1.41756 -2.99864,-2.5 -4.35034,-2.5 -1.31111,0 -3.14643,-0.89064 -4.07849,-1.9792 -1.56447,-1.82717 -4.74983,-1.85776 -4.74983,-0.04562 0,0.41867 2.85996,2.43378 6.35547,4.47803 7.52411,4.40026 21.6934,18.40221 27.87603,27.54679 3.87815,5.73609 4.81331,6.5356 7.95718,6.80295 2.37929,0.20233 4.14507,-0.27956 5.31637,-1.45086 1.56473,-1.56473 1.69531,-3.32233 1.21124,-16.30295 -0.63109,-16.92276 -1.40454,-20.07083 -11.61912,-47.29191 -7.65075,-20.38866 -9.56878,-28.99838 -10.63911,-47.75723 -0.74901,-13.127212 -1.36855,-16.327408 -4.6463,-24 -3.94944,-9.244888 -7.04181,-13.938179 -10.54601,-16.005709 -7.43431,-4.386352 -11.20272,-21.990811 -6.09684,-28.481901 1.98726,-2.52638 2.5945,-2.71319 7.25,-2.23037 7.81078,0.81006 9.69659,2.14463 14.08109,9.96511 2.2,3.924066 6.025,10.774144 8.5,15.222398 2.475,4.448254 5.72757,9.679308 7.22793,11.624564 1.93572,2.509695 3.00144,5.468095 3.66971,10.186941 1.12526,7.945808 1.50546,8.687822 4.10336,8.008456 1.84852,-0.4834 1.999,-0.02933 1.999,6.031827 0,5.508949 1.55587,14.990774 3.58142,21.825964 0.31623,1.06715 1.18026,1.4663 2.45337,1.13337 1.66679,-0.43587 1.96521,-0.002 1.96521,2.85932 0,1.85528 -0.44996,4.94216 -0.99992,6.85975 -0.66874,2.33176 -0.66458,5.47601 0.0126,9.49339 0.55686,3.30379 1.25222,7.46939 1.54523,9.25689 0.39993,2.43972 1.0452,3.25 2.58814,3.25 1.8883,0 1.99576,0.38613 1.32198,4.75 -1.34505,8.71155 -0.73266,26.19712 1.01068,28.8578 1.412,2.15498 1.42131,2.94293 0.0904,7.64736 -1.57995,5.58456 -3.55993,24.4597 -3.5656,33.99086 -0.006,10.1559 -7.76242,28.54375 -13.23383,31.37313 -2.60813,1.34872 -3.23624,1.31873 -6.57656,-0.31401 -2.89955,-1.41729 -4.58806,-3.47688 -7.85873,-9.58585 -8.06607,-15.06567 -32.61443,-44.24725 -49.3344,-58.64558 l -6.5,-5.59744 -14,0.0119 c -13.94159,0.0118 -13.99869,0.0213 -13.68714,2.26187 0.17207,1.2375 0.0372,2.25 -0.29966,2.25 -4.29456,-4e-5 -19.17324,-16.0286 -28.10455,-30.27661 -9.09005,-14.50125 -18.70414,-37.72343 -15.61768,-37.72343 0.57253,0 2.39699,1.71211 4.05434,3.80469 1.65736,2.09258 5.29517,6.19714 8.08403,9.12123 2.78886,2.92409 5.07066,5.71198 5.07066,6.1953 0,0.48333 0.66344,0.87878 1.47432,0.87878 0.81088,0 2.17243,1.35 3.02568,3 0.85325,1.65 2.19897,3 2.9905,3 0.79152,0 1.9208,0.9 2.5095,2 0.5887,1.1 1.92421,2 2.9678,2 1.04358,0 2.19121,0.92564 2.55029,2.05698 0.50573,1.59341 1.34868,1.9878 3.74037,1.75 4.74332,-0.47161 4.29901,-2.18571 -1.36573,-5.26885 -2.83726,-1.54423 -10.05547,-7.32826 -16.04045,-12.8534 -11.07725,-10.22615 -13.05223,-13.07355 -17.33375,-24.99064 -1.39832,-3.892045 -2.12509,-4.747747 -3.82196,-4.500004 -3.91118,0.571033 -6.10495,6.284954 -6.53631,17.024544 -0.68827,17.13581 3.15378,33.83501 14.40479,62.60943 4.70174,12.02469 6.47831,20.25115 8.45951,39.17194 0.67792,6.47427 2.02823,13.41289 3.0898,15.87712 1.0371,2.40741 1.89004,5.55741 1.89541,7 0.0161,4.31517 4.41833,12.4581 10.92403,20.20634 6.99306,8.32867 7.55707,9.83221 6.59044,17.56884 -0.89188,7.13836 -3.75952,10.3477 -9.24596,10.3477 -3.0872,0 -4.76072,-0.83908 -8.79546,-4.40993 z"
       id="path3758"
       inkscape:connector-curvature="0" />
    <path
       style="fill:#965757"
       d="m 250.31564,148.56603 c -5.86096,-1.84728 -12.11205,-9.27548 -19.89354,-23.63955 -1.48977,-2.75 -4.01861,-7.25 -5.61965,-10 -1.60103,-2.75 -2.92148,-5.94276 -2.93433,-7.09501 -0.0129,-1.15226 -0.92336,-2.9095 -2.02336,-3.90499 -1.35703,-1.2281 -2,-3.07997 -2,-5.76037 0,-2.17272 -1.08246,-7.61548 -2.40547,-12.09502 -1.32301,-4.47953 -2.68158,-9.38211 -3.01905,-10.89461 -0.39608,-1.77516 -1.26257,-2.75 -2.44435,-2.75 -1.65494,0 -1.78438,-0.72269 -1.34782,-7.52524 0.26562,-4.13888 -0.0625,-11.00138 -0.72915,-15.25 -1.6787,-10.69848 -2.10479,-12.22481 -3.41257,-12.22441 -0.78814,2.4e-4 -1.18689,-3.94737 -1.2879,-12.75 -0.0805,-7.01269 -0.25107,-19.72535 -0.3791,-28.25035 -0.50493,-33.62182 4.58751,-60.390843 12.47122,-65.556447 1.82141,-1.19344 2.90473,-1.32632 4.37927,-0.537167 2.9873,1.598754 6.97505,6.75471 10.26507,13.272209 1.63268,3.234313 4.46718,7.554757 6.2989,9.600987 1.83172,2.04623 6.79346,8.445418 11.02609,14.220418 10.56263,14.41164 37.50386,38.79526 41.47273,37.53559 1.03527,-0.32858 3.03989,-0.07 4.45471,0.57464 3.34691,1.52495 17.65742,-0.78033 17.65742,-2.84443 0,-1.85095 2.38426,-0.40557 8.13578,4.93204 2.54968,2.36619 6.48474,5.78802 8.74458,7.60407 6.5014,5.22466 15.69756,18.16765 21.61542,30.4223 2.99484,6.20168 5.73832,12.53751 6.09661,14.07962 0.61224,2.63507 0.35781,2.5147 -4.2273,-2 -2.68331,-2.64211 -5.41867,-6.01969 -6.07857,-7.50573 -0.65989,-1.48605 -2.51212,-3.38052 -4.11606,-4.20995 -1.60394,-0.82943 -3.1549,-2.42066 -3.44659,-3.53606 -0.29168,-1.11541 -1.58638,-2.44234 -2.8771,-2.94875 -1.29072,-0.50641 -3.12987,-1.86183 -4.08698,-3.01204 -0.95712,-1.15022 -2.67676,-2.0913 -3.82143,-2.0913 -1.14467,0 -2.75622,-0.675 -3.58122,-1.5 -1.89272,-1.89273 -5.74876,-1.93798 -7.28617,-0.0855 -1.29877,1.56492 -1.28625,1.57622 9.51636,8.58452 6.7831,4.40061 20.71912,18.40099 25.01239,25.12791 4.8343,7.57463 6.38389,8.87308 10.58929,8.87308 3.24272,0 4.16158,-0.50579 5.90424,-3.25 1.88969,-2.97573 2.01802,-4.30489 1.52076,-15.75 -0.6567,-15.11482 -2.8487,-24.0126 -11.57864,-47 -8.03552,-21.15888 -9.8112,-28.93459 -11.0387,-48.338401 -0.89332,-14.121167 -1.33032,-16.614877 -4.03055,-23 -5.50799,-13.024514 -7.25855,-15.739537 -12.20326,-18.926636 -4.05423,-2.613145 -6.98731,-9.187063 -7.54113,-16.901987 -0.44601,-6.213176 -0.29563,-6.849986 2.20918,-9.354786 2.02788,-2.02789 3.34836,-2.55617 5.37843,-2.15174 6.9052,1.37565 9.55932,2.33018 10.27416,3.69503 4.70024,8.974208 17.66442,31.078667 19.52292,33.287368 1.79742,2.136108 2.39358,4.040407 2.39358,7.645753 0,5.384151 2.30481,11.8414 4.5316,12.695899 0.92834,0.356236 1.4684,1.936456 1.4684,4.296526 0,2.053177 0.83788,7.067532 1.86196,11.143014 1.02408,4.07548 2.15765,8.64746 2.51905,10.15996 0.37386,1.56462 1.3392,2.75 2.23953,2.75 1.3472,0 1.49178,1.00344 0.97256,6.75 -0.34359,3.8028 -0.0539,10.46129 0.6634,15.25 1.13484,7.5758 1.5163,8.53474 3.50839,8.81955 2.64174,0.37769 2.74802,1.47526 0.70384,7.26906 -1.29526,3.67119 -1.35877,5.88675 -0.41207,14.37573 0.61556,5.51961 1.58022,11.00061 2.1437,12.17999 0.7017,1.4687 0.69602,3.20162 -0.018,5.5 -1.49169,4.80141 -2.04718,9.39824 -3.20444,26.51749 -1.08038,15.98194 -2.75039,22.86153 -7.52905,31.01569 -1.39801,2.38552 -3.61162,5.03827 -4.91914,5.89499 -2.15967,1.41507 -2.6669,1.40791 -5.5406,-0.0781 -1.73981,-0.89969 -3.9116,-3.00018 -4.8262,-4.66776 C 351.08565,96.27879 345.9293,88.22108 341.4129,82.44618 332.23637,70.71259 313.47802,50.63163 304.44516,42.87192 c -7.64378,-6.56642 -9.23964,-7.53027 -11.48861,-6.93879 -1.43647,0.3778 -3.96176,0.62319 -5.61176,0.54532 -8.58913,-0.4054 -21.14917,0.24195 -22.2387,1.14618 -0.90589,0.75182 -1.98728,0.16526 -4.00134,-2.17035 -1.51798,-1.76033 -5.25182,-5.74921 -8.29743,-8.86418 -5.87751,-6.01136 -14.29356,-19.04371 -19.78856,-30.64282 -5.99974,-12.66455 -8.04219,-20.89769 -3.2678,-13.17257 1.17386,1.89935 2.76529,3.69551 3.5365,3.99145 0.77121,0.29594 1.54961,1.57809 1.72977,2.84922 0.18016,1.27113 1.01577,2.31115 1.85691,2.31115 1.70863,-5e-5 8.97062,6.85395 8.97062,8.46662 0,0.56833 0.66463,1.03333 1.47695,1.03333 0.81232,0 2.21407,1.125 3.11501,2.5 0.90093,1.375 2.30167,2.5 3.11276,2.5 0.81108,0 2.27873,0.99295 3.26145,2.20655 1.57916,1.95019 2.23554,2.09541 5.64967,1.25 5.98828,-1.48284 5.51019,-3.7008 -1.70988,-7.93236 -3.41507,-2.00152 -10.78726,-7.8844 -16.38263,-13.07307 -10.31519,-9.56542 -12.05747,-12.12778 -16.2856,-23.95112 -1.57483,-4.403763 -2.15978,-5.036411 -4.90539,-5.305341 -2.46743,-0.241683 -3.53053,0.27952 -5.09924,2.500001 -2.30771,3.26651 -4.2331,11.44285 -4.2331,17.97622 0,13.72419 6.01282,38.0549 14.81896,59.96454 4.65488,11.58132 6.59156,20.36028 8.60286,38.9967 0.98139,9.09344 2.05708,14.38629 3.49772,17.21016 1.14425,2.24292 2.08046,5.46093 2.08046,7.15113 0,4.17415 4.28467,12.35597 9.95341,19.00659 8.59624,10.08521 9.43614,12.52655 6.91524,20.10078 -1.79291,5.38695 -4.97613,7.43241 -9.39777,6.03877 z M 359.84476,78.53347 c 0,-1.01369 -3.04579,-2.39454 -3.74326,-1.69706 -0.25136,0.25135 -0.16039,0.93695 0.20214,1.52354 0.79781,1.29088 3.54112,1.42531 3.54112,0.17352 z M 331.97393,22.15565 c -1.66487,-1.66487 -2.60779,-0.0108 -1.05822,1.85632 0.93718,1.12923 1.47919,1.26409 1.755,0.43666 0.21948,-0.65843 -0.0941,-1.69028 -0.69678,-2.29298 z M 240.02809,-3.79019 c -0.71756,-0.71756 -1.18333,-0.7766 -1.18333,-0.15 0,1.33478 1.18261,2.51739 1.85,1.85 0.28417,-0.28416 -0.0158,-1.04916 -0.66667,-1.7 z m -23.72604,-35.714232 c 0.31644,-0.511996 0.11799,-1.213553 -0.44098,-1.559017 -0.55897,-0.345463 -1.01631,0.07344 -1.01631,0.930902 0,1.756527 0.60005,2.015157 1.45729,0.628115 z m 4.29271,-3.699384 c 2.24039,-0.600401 3.21364,-3.369714 1.18426,-3.369714 -1.70982,0 -4.93426,1.983433 -4.93426,3.035184 0,1.112895 0.63437,1.169486 3.75,0.33453 z M 355.93854,-64.87974 c -1.30594,-1.305941 -1.48759,0.141359 -0.37332,2.974433 0.69488,1.76676 0.7337,1.765893 1.09378,-0.02443 0.20532,-1.020921 -0.11888,-2.348421 -0.72046,-2.95 z"
       id="path3756"
       inkscape:connector-curvature="0" />
    <path
       style="fill:#6c5053"
       d="m 243.84476,144.16581 c -2.475,-2.33163 -6.075,-7.06514 -8,-10.5189 -1.925,-3.45377 -5.6336,-9.72919 -8.24134,-13.94537 -2.60773,-4.21618 -5.02891,-9.26538 -5.38039,-11.22043 -0.35148,-1.95504 -0.97724,-4.00463 -1.39059,-4.55463 -0.41334,-0.55 -1.46582,-3.925 -2.33885,-7.5 -4.19877,-17.19385 -6.34807,-23.50181 -8.12595,-23.84877 -1.5678,-0.30596 -1.70931,-1.09341 -1.15302,-6.4158 0.39256,-3.75577 0.0562,-9.52768 -0.88304,-15.15123 -2.15469,-12.90133 -2.35606,-13.5842 -4.00587,-13.5842 -1.71351,0 -1.88545,-1.80589 -0.51509,-5.4102 0.61629,-1.62098 0.62553,-6.259 0.0255,-12.8151 -2.08052,-22.7333 -0.49774,-54.66629 3.49266,-70.465384 2.42318,-9.594031 5.79628,-16.819174 8.30081,-17.780253 2.18822,-0.839701 4.21514,1.34183 4.21514,4.536678 0,1.562093 0.80131,3.403946 1.79571,4.127555 0.98764,0.718687 2.82435,2.994204 4.08156,5.056704 1.25722,2.0625 2.88194,3.75 3.61048,3.75 0.72855,0 2.92796,2.1375 4.88757,4.75 15.12318,20.16181 20.92943,26.95218 30.87411,36.10705 14.04867,12.93292 18.7222,16.22109 22.97844,16.16699 1.79967,-0.0229 4.98295,0.23931 7.07394,0.58264 2.091,0.34333 5.75118,0.0784 8.13373,-0.58863 3.37445,-0.94479 4.82779,-0.94749 6.57537,-0.0122 1.79411,0.96018 2.41825,0.92961 3.11626,-0.15259 0.7223,-1.11987 1.04265,-1.09456 1.85752,0.14675 1.35204,2.05961 1.26089,2.69178 -0.48469,3.36163 -2.50909,0.96283 -1.7115,2.32438 2.96812,5.06682 5.04598,2.95714 21.27919,18.86236 23.51485,23.03973 0.80665,1.50724 2.91248,4.15599 4.67964,5.88612 3.34067,3.2707 9.33739,13.7545 9.33739,16.32417 0,0.9535 -1.08838,0.387 -3.07692,-1.60155 -1.69231,-1.69231 -3.44829,-3.07693 -3.90218,-3.07693 -0.45389,0 -1.28141,-1.30853 -1.83893,-2.90785 -0.55753,-1.59932 -2.45079,-3.96182 -4.20725,-5.25 -1.75647,-1.28818 -3.58319,-3.35465 -4.0594,-4.59215 -0.47933,-1.24564 -1.71829,-2.25 -2.77556,-2.25 -1.05036,0 -2.64687,-1.125 -3.5478,-2.5 -0.97956,-1.49499 -2.58458,-2.5 -3.99257,-2.5 -1.29497,0 -2.9147,-0.675 -3.59939,-1.5 -1.42481,-1.71679 -7.55412,-2.03046 -8.53894,-0.43699 -0.9504,1.53777 2.05784,4.47456 8.04396,7.85291 9.16635,5.17317 31.72361,30.94075 31.92597,36.46964 0.10338,2.82465 2.94323,4.26036 5.75391,2.90894 1.2733,-0.61223 3.04628,-1.34321 3.93995,-1.62441 2.47095,-0.7775 3.24424,-5.81918 3.24705,-21.17009 0.003,-17.86314 -0.14121,-18.42685 -14.86651,-58 -4.25148,-11.42553 -6.23614,-22.23918 -7.43306,-40.5 -0.8628,-13.163326 -1.23957,-15.099199 -4.08712,-21 -6.75381,-13.995528 -7.75554,-15.554907 -11.71756,-18.240665 -4.70777,-3.19128 -7.22146,-8.485646 -7.99712,-16.843635 -0.92126,-9.92678 3.14758,-13.31612 12.46681,-10.38487 4.31366,1.35682 5.37013,2.14097 5.81178,4.31371 0.96521,4.748437 9.3621,18.94001 18.99346,32.100798 2.0809,2.84345 2.41469,4.156812 1.91065,7.51796 -0.46016,3.068604 0.0424,5.793892 2.03843,11.054661 1.45703,3.840123 3.95652,12.123593 5.55442,18.407711 1.59789,6.28412 3.36621,11.88662 3.92959,12.45 0.56338,0.56338 1.02433,3.43563 1.02433,6.38278 0,4.85132 1.32485,16.25186 2.55563,21.99155 0.30315,1.41375 1.21873,2.25 2.46342,2.25 2.33103,0 2.4297,1.1077 0.57899,6.5 -1.11933,3.26133 -1.16281,5.939 -0.23544,14.5 0.62557,5.775 1.51466,11.08386 1.97575,11.79747 0.46425,0.71849 0.36244,3.39591 -0.22815,6 -1.29729,5.72007 -3.1021,25.40697 -3.10678,33.88884 -0.002,4.45827 -0.83463,8.34492 -2.97912,13.91408 -4.24273,11.0182 -7.34454,15.39961 -10.90212,15.39961 -3.34227,0 -7.74312,-3.94041 -9.77748,-8.7545 -4.98462,-11.79556 -30.11741,-41.93581 -48.3447,-57.9769 -8.95764,-7.88325 -9.69982,-8.32382 -13,-7.71705 -1.925,0.35393 -4.4,0.5748 -5.5,0.49081 -1.1,-0.084 -7.175,-0.26533 -13.5,-0.40299 -7.73014,-0.16824 -11.42805,-0.61187 -11.28052,-1.35328 0.12072,-0.60664 -2.41946,-3.03502 -5.64483,-5.3964 -3.72091,-2.72417 -7.42899,-6.68677 -10.1452,-10.84156 -2.35449,-3.60147 -5.49244,-8.34813 -6.97324,-10.54813 -2.54743,-3.78469 -9.20644,-18.5 -8.37167,-18.5 0.2147,0 1.53632,1.81531 2.93694,4.03402 1.40061,2.21871 3.31875,4.81865 4.26254,5.77765 0.94379,0.95899 3.02083,3.75618 4.61566,6.21597 3.66845,5.65808 10.38312,11.97236 12.73153,11.97236 0.98913,0 2.28009,0.9 2.86879,2 1.53981,2.87717 2.79852,2.46138 2.27047,-0.75 -0.2487,-1.5125 -1.87379,-4.04771 -3.61132,-5.63379 -2.15067,-1.96321 -2.53565,-2.6666 -1.20599,-2.20343 2.88625,1.0054 12.54684,-0.42187 12.54684,-1.85369 0,-1.67009 -3.67253,-4.94226 -8.8077,-7.84755 -2.36924,-1.34042 -9.02396,-6.82282 -14.78828,-12.18311 -10.4136,-9.68371 -13.58872,-14.14377 -16.39393,-23.02843 -2.29628,-7.272785 -5.33302,-9.063393 -9.92096,-5.849877 -1.81817,1.273498 -2.25483,1.330558 -1.91315,0.25 0.24351,-0.770068 1.87852,-2.043833 3.63338,-2.83059 3.04691,-1.366029 4.42473,-4.069533 2.07401,-4.069533 -0.6243,0 -0.88603,-0.881812 -0.59362,-2 0.35287,-1.34936 0.0307,-2 -0.99036,-2 -0.94774,0 -1.29387,0.571998 -0.92609,1.53042 0.37942,0.988743 -0.25157,1.912623 -1.78274,2.610272 -1.30351,0.593918 -2.86964,2.176403 -3.48029,3.516633 -1.33312,2.92589 -1.46339,7.342675 -0.21657,7.342675 0.50878,0 0.4644,1.83052 -0.10303,4.25 -1.77587,7.57222 -0.24845,29.03481 2.7933,39.25 1.47394,4.95 3.52043,12.02799 4.54775,15.72886 1.02732,3.70088 3.63611,11.12588 5.79733,16.5 4.92933,12.2574 6.49119,19.05573 8.56271,37.27114 1.31591,11.57109 2.13976,15.34394 4.07862,18.67807 1.33629,2.29794 2.43402,5.67294 2.43939,7.5 0.0148,5.04344 4.49653,13.61924 10.34143,19.78846 7.1081,7.50252 8.35129,10.73637 6.68312,17.38448 -1.70809,6.8072 -2.52624,7.65094 -7.40677,7.63832 -3.47274,-0.009 -4.84144,-0.6832 -8.62755,-4.25 z M 365.20639,82.92648 c 0.39152,-1.02029 -0.054,-1.5 -1.39301,-1.5 -1.96505,0 -2.56323,1.07205 -1.30195,2.33333 1.07997,1.07998 2.07933,0.77096 2.69496,-0.83333 z m -91.86163,-58.5 c 0.33992,-0.55 -0.0284,-1 -0.81854,-1 -0.79011,0 -2.0058,-0.68587 -2.70152,-1.52417 -0.69572,-0.83829 -1.49806,-1.29105 -1.78298,-1.00613 -0.61273,0.61273 2.75893,4.5303 3.89901,4.5303 0.4323,0 1.06411,-0.45 1.40403,-1 z m 102.5,-11.49392 c 0,-0.75673 -0.49889,-2.64268 -1.10865,-4.19098 -1.05254,-2.6726 -1.15666,-2.71208 -2.05694,-0.77996 -0.61391,1.31751 -0.57626,3.01366 0.10678,4.81017 1.03992,2.7352 3.05881,2.84131 3.05881,0.16077 z m -73.5,-2.50608 c 1.92824,-0.82859 1.92138,-0.86195 -0.19098,-0.92971 -1.20504,-0.0387 -2.4691,0.37971 -2.80902,0.92971 -0.731,1.18278 0.24752,1.18278 3,0 z m 5.5,0 c 0,-0.55 -0.7875,-0.99311 -1.75,-0.98469 -1.49555,0.0131 -1.5319,0.15626 -0.25,0.98469 1.88721,1.21961 2,1.21961 2,0 z m -97.58071,-22.75 c -0.37677,-4.8125 -0.85024,-8.9375 -1.05216,-9.16667 -0.20192,-0.22916 -0.36713,3.70834 -0.36713,8.75 0,5.74744 0.39247,9.16667 1.05217,9.16667 0.70825,0 0.82825,-2.86007 0.36712,-8.75 z m 156.58071,-20.11789 c 0,-0.96242 -0.66069,-2.62336 -1.4682,-3.69098 -1.40978,-1.8639 -1.46946,-1.83497 -1.5,0.72708 -0.0413,3.46858 0.94167,5.96622 2.07298,5.26703 0.49237,-0.3043 0.89522,-1.34071 0.89522,-2.30313 z m -4.07647,-7.989217 c 1.38596,-2.589699 -4.08615,-23.109561 -7.67585,-28.783658 -2.81904,-4.455941 -6.15688,-7.011729 -4.72844,-3.620576 1.95445,4.63993 9.44603,27.559312 10.0358,30.703023 0.76582,4.082208 1.00303,4.252588 2.36849,1.701211 z m -16.92353,-45.175012 c 0,-2.029207 -2.91705,-7.967881 -3.91379,-7.967881 -0.55871,0 -1.49912,0.903011 -2.08979,2.00669 -0.88017,1.644615 -0.62407,2.456569 1.41936,4.5 2.59809,2.598093 4.58422,3.231158 4.58422,1.461191 z m 14.8125,162.349009 c 0.72187,-0.28887 1.58437,-0.25335 1.91667,0.0789 0.33229,0.33229 -0.25834,0.56864 -1.3125,0.52522 -1.16495,-0.048 -1.4019,-0.28494 -0.60417,-0.60416 z M 318.30364,11.35995 c -1.07627,-1.74144 0.14952,-2.11024 1.52106,-0.45764 0.78875,0.95039 0.86462,1.52417 0.20152,1.52417 -0.58488,0 -1.36004,-0.47994 -1.72258,-1.06653 z M 251.84476,9.42648 c 0,-0.55 0.45,-1 1,-1 0.55,0 1,0.45 1,1 0,0.55 -0.45,1 -1,1 -0.55,0 -1,-0.45 -1,-1 z"
       id="path3754"
       inkscape:connector-curvature="0" />
    <path
       style="fill:#8c3a3a"
       d="m 247.66255,145.04855 c -5.76421,-3.42733 -7.39129,-5.27762 -11.39118,-12.95385 -2.05435,-3.94252 -4.9541,-8.74322 -6.44388,-10.66822 -4.17075,-5.38916 -6.25829,-10.07613 -6.616,-14.85434 -0.17954,-2.39817 -2.35252,-10.55963 -4.82885,-18.1366 -3.65552,-11.18498 -4.70855,-16.10242 -5.59828,-26.14268 -1.01529,-11.45714 -2.12286,-17.99147 -4.82641,-28.4744 -1.94338,-7.53536 -4.0949,-29.74393 -4.10686,-42.39198 -0.0269,-28.42223 4.82045,-53.461718 11.40785,-58.928773 2.34701,-1.947847 4.58582,-0.561018 4.58582,2.840684 0,1.71009 0.76339,3.530185 1.79571,4.281385 0.98764,0.718687 2.82435,2.994204 4.08156,5.056704 1.25722,2.0625 2.88194,3.75 3.61048,3.75 0.72855,0 2.92796,2.1375 4.88757,4.75 14.85111,19.7991 20.97073,26.98303 30.32513,35.59919 5.88119,5.41705 12.29203,11.03939 14.24631,12.49409 1.95428,1.45469 3.91451,3.21257 4.35606,3.9064 0.44155,0.69382 2.69155,1.2668 5,1.27328 2.30845,0.006 6.22218,0.0199 8.69718,0.0299 2.475,0.01 7.5758,-0.11793 11.33511,-0.28417 6.82997,-0.30202 9.39939,0.68116 6.30529,2.41271 -2.53954,1.4212 -2.00355,2.41576 2.82772,5.24708 4.97313,2.91445 21.2664,18.83847 23.45,22.91855 0.77097,1.44058 2.12439,3.41434 3.0076,4.38612 2.48561,2.73491 8.07428,11.80523 8.07428,13.10443 0,1.98665 -1.82439,1.28121 -3.70332,-1.43199 -3.21375,-4.64069 -11.63398,-13.88944 -13.23525,-14.53753 -0.85879,-0.34758 -2.41867,-1.58508 -3.46642,-2.75 -1.04774,-1.16495 -2.90514,-2.11806 -4.12755,-2.11806 -1.22242,0 -2.78277,-0.675 -3.46746,-1.5 -1.43807,-1.73277 -6.24354,-1.97521 -9.07845,-0.45801 -2.85562,1.52828 -1.03524,4.17404 5.40852,7.86078 7.28944,4.1706 13.37514,9.70667 21.93661,19.95541 9.41617,11.27186 11.73332,14.63479 11.73332,17.02875 0,1.08235 1.2375,2.89075 2.75,4.01866 1.5125,1.12791 3.55618,2.83399 4.54152,3.79128 2.12715,2.06661 5.14187,0.75556 5.3148,-2.31131 0.0585,-1.03706 0.35948,-2.56056 0.6689,-3.38556 2.45514,-6.54617 3.31419,-23.50961 1.73758,-34.31124 -1.06674,-7.30842 -7.89934,-28.38727 -14.84677,-45.80294 -3.99084,-10.00414 -5.86987,-20.34479 -7.19441,-39.59212 -0.9541,-13.864435 -1.37608,-16.235366 -3.45452,-19.409348 -1.30221,-1.988607 -2.84995,-5.406753 -3.43942,-7.595881 -1.35156,-5.01929 -6.35617,-12.002605 -9.69043,-13.521798 -3.8107,-1.73627 -6.63061,-8.152188 -7.16273,-16.296798 -0.33927,-5.192705 -0.10192,-7.312175 0.90808,-8.109285 1.93295,-1.5255 7.40393,-2.41889 8.47157,-1.38337 0.4927,0.47789 2.20344,1.01601 3.80164,1.19583 2.32031,0.26107 3.15609,1.05362 4.14795,3.93339 1.41221,4.100214 14.47185,25.941957 18.06934,30.220285 1.79462,2.134249 2.3769,4.027211 2.3769,7.727171 0,2.839651 1.08094,7.748639 2.5704,11.673275 1.41373,3.725056 3.86839,11.877221 5.45482,18.115919 1.58643,6.23871 3.41342,11.98051 4.05998,12.75957 0.6948,0.83718 0.95837,3.03585 0.64447,5.3761 -0.78984,5.8887 2.37238,26.01941 4.08772,26.02245 0.37543,6.6e-4 0.74219,6.63816 0.81502,14.75 0.0728,8.11183 0.57351,15.87146 1.11263,17.24361 0.54789,1.39443 0.62632,3.59977 0.17783,5 -0.44131,1.37785 -1.33323,11.24975 -1.98203,21.93757 -1.26486,20.83629 -2.90159,27.87661 -8.41902,36.214 -2.60386,3.9347 -5.52182,5.12787 -5.52182,2.2579 0,-2.52686 -3.11806,-7.13705 -5.58832,-8.26258 -1.24177,-0.56579 -2.40636,-2.06663 -2.58796,-3.33521 -0.24732,-1.7276 -0.90097,-2.24549 -2.60434,-2.06344 -1.6436,0.17567 -2.5461,-0.47219 -3.25493,-2.33656 -1.13386,-2.98229 -8.66052,-12.97055 -11.98636,-15.9065 -1.24607,-1.1 -4.13455,-4.55199 -6.41884,-7.6711 -6.63999,-9.06664 -32.95455,-32.8289 -36.35505,-32.8289 -1.1407,0 -3.28303,0.45967 -4.76074,1.0215 -1.88579,0.71697 -3.08401,0.69178 -4.01937,-0.0845 -0.86829,-0.72062 -3.54496,-0.86906 -7.68199,-0.42602 -4.81978,0.51615 -7.1796,0.29738 -9.79573,-0.90814 C 262.76828,31.25397 252.713,24.42088 249.98224,21.24768 246.45433,17.14819 235.92727,0.26282 235.88128,-1.3702 c -0.0599,-2.12526 4.52307,1.85258 6.61264,5.73958 2.56642,4.77402 11.04373,13.0571 13.36327,13.0571 1.05446,0 2.39887,0.9 2.98757,2 1.53981,2.87717 2.79852,2.46138 2.27047,-0.75 -0.2487,-1.5125 -1.87379,-4.0156 -3.61132,-5.56244 l -3.15915,-2.81244 2.76281,0.67406 c 1.51954,0.37074 4.78204,0.37126 7.25,0.001 3.9007,-0.58478 4.48719,-0.99036 4.48719,-3.1029 0,-1.90919 -1.20541,-3.11047 -5.62263,-5.6034 -3.09245,-1.74527 -10.69091,-7.80117 -16.88545,-13.45755 -10.60484,-9.68351 -11.44763,-10.74006 -14.42633,-18.08533 -1.73994,-4.29055 -4.26648,-10.135173 -5.61455,-12.98805 -1.34807,-2.852878 -2.45104,-5.835278 -2.45104,-6.627556 0,-0.792277 -0.74042,-2.054996 -1.64537,-2.806041 -1.41758,-1.176488 -1.7983,-1.098529 -2.75,0.563109 -0.60755,1.060755 -2.21392,2.998952 -3.56972,4.307104 -2.36709,2.283899 -2.47756,2.962329 -2.7785,17.064444 -0.50176,23.51228 1.39775,33.66267 12.38584,66.18599 6.41945,19.00071 8.46874,28.49353 10.4323,48.32494 0.71405,7.2118 1.33548,9.37364 3.39961,11.82672 1.41893,1.6863 2.52584,4.2613 2.52584,5.87584 0,5.12736 2.19124,13.2614 4.13438,15.34711 2.46775,2.64882 1.86501,4.20677 -1.47163,3.80382 -2.25017,-0.27174 -2.66275,0.0602 -2.66275,2.14221 v 2.46376 l 3.63682,-1.85416 c 4.30963,-2.19717 5.49211,-1.74369 10.81418,4.1472 3.47709,3.84872 3.73933,4.55089 3.28746,8.80245 -0.79499,7.48002 -2.24201,10.13529 -5.46371,10.02585 -1.52611,-0.0519 -4.43174,-1.0795 -6.45696,-2.28367 z m -9.81779,-37.62207 c 0,-2.10908 -1.45488,-2.69104 -2.5,-1 -0.7292,1.17987 0.21667,3 1.55902,3 0.51754,0 0.94098,-0.9 0.94098,-2 z m -4.31689,-16.1875 c -0.31922,-0.79773 -0.55618,-0.56078 -0.60416,0.60417 -0.0434,1.05416 0.19292,1.64479 0.52522,1.3125 0.33229,-0.3323 0.36782,-1.1948 0.079,-1.91667 z m -2.68311,-11.0858 c 0,-1.98583 -0.12723,-2.02805 -1.61832,-0.53695 -0.89008,0.89008 -1.30899,2.11885 -0.93091,2.7306 1.00608,1.62786 2.54923,0.29995 2.54923,-2.19365 z m 42.5,-55.7267 c 0.33992,-0.55 -0.0284,-1 -0.81854,-1 -0.79011,0 -2.0058,-0.68587 -2.70152,-1.52417 -0.69572,-0.83829 -1.49806,-1.29105 -1.78298,-1.00613 -0.61273,0.61273 2.75893,4.5303 3.89901,4.5303 0.4323,0 1.06411,-0.45 1.40403,-1 z m 102.5,-11.49392 c 0,-0.75673 -0.49889,-2.64268 -1.10865,-4.19098 -1.05254,-2.6726 -1.15666,-2.71208 -2.05694,-0.77996 -0.61391,1.31751 -0.57626,3.01366 0.10678,4.81017 1.03992,2.7352 3.05881,2.84131 3.05881,0.16077 z m -73.5,-2.50608 c 1.92824,-0.82859 1.92138,-0.86195 -0.19098,-0.92971 -1.20504,-0.0387 -2.4691,0.37971 -2.80902,0.92971 -0.731,1.18278 0.24752,1.18278 3,0 z m 5.5,0 c 0,-0.55 -0.7875,-0.99311 -1.75,-0.98469 -1.49555,0.0131 -1.5319,0.15626 -0.25,0.98469 1.88721,1.21961 2,1.21961 2,0 z m -97.58071,-22.75 c -0.37677,-4.8125 -0.85024,-8.9375 -1.05216,-9.16667 -0.20192,-0.22916 -0.36713,3.70834 -0.36713,8.75 0,5.74744 0.39247,9.16667 1.05217,9.16667 0.70825,0 0.82825,-2.86007 0.36712,-8.75 z m 156.58071,-20.11789 c 0,-0.96242 -0.66069,-2.62336 -1.4682,-3.69098 -1.40978,-1.8639 -1.46946,-1.83497 -1.5,0.72708 -0.0413,3.46858 0.94167,5.96622 2.07298,5.26703 0.49237,-0.3043 0.89522,-1.34071 0.89522,-2.30313 z m -4.07647,-7.989217 c 1.38596,-2.589699 -4.08615,-23.109561 -7.67585,-28.783658 -2.81904,-4.455941 -6.15688,-7.011729 -4.72844,-3.620576 1.95445,4.63993 9.44603,27.559312 10.0358,30.703023 0.76582,4.082208 1.00303,4.252588 2.36849,1.701211 z m -16.92353,-45.175012 c 0,-2.029207 -2.91705,-7.967881 -3.91379,-7.967881 -0.55871,0 -1.49912,0.903011 -2.08979,2.00669 -0.88017,1.644615 -0.62407,2.456569 1.41936,4.5 2.59809,2.598093 4.58422,3.231158 4.58422,1.461191 z m -10.925,-17.242881 c -0.12369,-1.1957 -1.49529,-0.96414 -1.925,0.325 -0.22,0.66 0.14,1.02 0.8,0.8 0.66,-0.22 1.16625,-0.72625 1.125,-1.125 z M 318.30364,11.35995 c -1.07627,-1.74144 0.14952,-2.11024 1.52106,-0.45764 0.78875,0.95039 0.86462,1.52417 0.20152,1.52417 -0.58488,0 -1.36004,-0.47994 -1.72258,-1.06653 z M 251.84476,9.42648 c 0,-0.55 0.45,-1 1,-1 0.55,0 1,0.45 1,1 0,0.55 -0.45,1 -1,1 -0.55,0 -1,-0.45 -1,-1 z"
       id="path3752"
       inkscape:connector-curvature="0" />
    <path
       style="fill:#6d3636"
       d="m 247.66255,145.04855 c -5.76421,-3.42733 -7.39129,-5.27762 -11.39118,-12.95385 -2.05435,-3.94252 -4.9541,-8.74322 -6.44388,-10.66822 -4.17075,-5.38916 -6.25829,-10.07613 -6.616,-14.85434 -0.17954,-2.39817 -2.35252,-10.55963 -4.82885,-18.1366 -3.65552,-11.18498 -4.70855,-16.10242 -5.59828,-26.14268 -1.01529,-11.45714 -2.12286,-17.99147 -4.82641,-28.4744 -1.94338,-7.53536 -4.0949,-29.74393 -4.10686,-42.39198 -0.0262,-27.6853 4.24998,-50.8147 10.76925,-58.25 2.61962,-2.987714 3.9125,-2.03147 4.55183,3.36664 0.48762,4.117171 1.29617,5.786938 4.13929,8.548138 1.94331,1.887323 3.5333,4.015091 3.5333,4.728372 0,0.713281 0.94989,2.154119 2.11086,3.201862 1.16097,1.047744 4.61784,6.179988 7.68193,11.404988 3.06409,5.225 6.50089,10.85 7.63733,12.5 3.64958,5.29885 10.90789,12.95476 13.76269,14.51661 2.62516,1.43621 9.16772,6.73499 14.53951,11.77546 1.97603,1.85416 2.21156,2.57062 1.23276,3.75 -1.57925,1.90289 -4.96508,1.88003 -4.96508,-0.0335 0,-0.8203 -2.53019,-2.9194 -5.62263,-4.66467 -3.09245,-1.74529 -10.69091,-7.80119 -16.88545,-13.45757 -10.60484,-9.68351 -11.44763,-10.74006 -14.42633,-18.08533 -1.73994,-4.29055 -4.26648,-10.135173 -5.61455,-12.98805 -1.34807,-2.852878 -2.45104,-5.835278 -2.45104,-6.627556 0,-0.792277 -0.74042,-2.054996 -1.64537,-2.806041 -1.41758,-1.176488 -1.7983,-1.098529 -2.75,0.563109 -0.60755,1.060755 -2.21392,2.998952 -3.56972,4.307104 -2.36709,2.283899 -2.47756,2.962329 -2.7785,17.064444 -0.50176,23.51228 1.39775,33.66267 12.38584,66.18599 6.41945,19.00071 8.46874,28.49353 10.4323,48.32494 0.71405,7.2118 1.33548,9.37364 3.39961,11.82672 1.41893,1.6863 2.52584,4.2613 2.52584,5.87584 0,5.12736 2.19124,13.2614 4.13438,15.34711 2.46775,2.64882 1.86501,4.20677 -1.47163,3.80382 -2.25017,-0.27174 -2.66275,0.0602 -2.66275,2.14221 v 2.46376 l 3.63682,-1.85416 c 4.30963,-2.19717 5.49211,-1.74369 10.81418,4.1472 3.47709,3.84872 3.73933,4.55089 3.28746,8.80245 -0.79499,7.48002 -2.24201,10.13529 -5.46371,10.02585 -1.52611,-0.0519 -4.43174,-1.0795 -6.45696,-2.28367 z m -9.81779,-37.62207 c 0,-2.10908 -1.45488,-2.69104 -2.5,-1 -0.7292,1.17987 0.21667,3 1.55902,3 0.51754,0 0.94098,-0.9 0.94098,-2 z m -6.48753,-27.16052 c -4.25451,-6.429 -8.13674,-6.79219 -4.56147,-0.42673 1.12695,2.00645 2.049,4.84289 2.049,6.30322 0,1.46032 1.0125,3.73748 2.25,5.06034 l 2.25,2.40522 0.30933,-4.70191 c 0.24503,-3.72451 -0.23243,-5.52058 -2.29686,-8.64014 z M 224.84476,53.5757 c 0,-3.63278 -2.17872,-8.14922 -3.93116,-8.14922 -2.5891,0 -3.05049,0.91806 -1.93539,3.85099 1.93838,5.09833 5.86655,7.97637 5.86655,4.29823 z m -3.48347,-17.86323 c -0.39266,-3.1427 -1.78236,-8.67598 -3.08824,-12.29618 -3.81328,-10.5713 -7.2325,-37.41155 -7.3874,-57.98981 -0.0683,-9.067125 -1.26349,-14.504771 -2.41172,-10.971975 -1.08969,3.352675 -1.71177,40.681515 -0.74945,44.971975 0.55512,2.475 1.46607,7.875 2.02432,12 3.3323,24.62264 3.74152,26 7.72476,26 1.71743,0 2.73036,0.65744 3.08145,2 1.04312,3.98889 1.50365,1.86753 0.80628,-3.71401 z m 142.48347,71.1183 c 0,-2.52686 -3.11806,-7.13705 -5.58832,-8.26258 -1.24177,-0.56579 -2.40636,-2.06663 -2.58796,-3.33521 -0.24732,-1.7276 -0.90097,-2.24549 -2.60434,-2.06344 -1.6436,0.17567 -2.5461,-0.47219 -3.25493,-2.33656 -1.13386,-2.98229 -8.66052,-12.97055 -11.98636,-15.9065 -1.24607,-1.1 -4.13455,-4.55199 -6.41884,-7.6711 -6.63999,-9.06664 -32.95455,-32.8289 -36.35505,-32.8289 -1.1407,0 -3.28303,0.45967 -4.76074,1.0215 -1.88579,0.71697 -3.08401,0.69178 -4.01937,-0.0845 -0.86829,-0.72062 -3.54496,-0.86906 -7.68199,-0.42602 -4.81978,0.51615 -7.1796,0.29738 -9.79573,-0.90814 -6.02285,-2.77535 -16.07813,-9.60844 -18.80889,-12.78164 -3.6525,-4.24427 -14.05641,-21.012 -14.10096,-22.72619 -0.0629,-2.42107 4.02124,2.01454 5.68817,6.17764 2.21613,5.53469 16.68599,18.72735 20.54039,18.72735 2.01407,0 3.87555,1.00953 5.9436,3.2234 l 3.01111,3.2234 1.8901,-2.33419 c 2.98349,-3.68445 2.40962,-5.92094 -1.96881,-7.67284 -2.12241,-0.84922 -4.44845,-2.64557 -5.16898,-3.9919 -0.72053,-1.34633 -1.90902,-2.44787 -2.64108,-2.44787 -0.73206,0 -1.33102,-0.45 -1.33102,-1 0,-1.38491 2.65796,-1.23385 8.27402,0.47022 5.67415,1.7217 6.83478,1.38699 10.11837,-2.91802 2.86137,-3.75145 8.61243,-5.13157 13.57619,-3.25796 2.21476,0.83598 4.18407,0.78844 8.01532,-0.19348 5.20192,-1.33321 10.5714,-0.80827 9.49798,0.92856 -0.32995,0.53387 -2.93586,0.97757 -5.7909,0.98599 -7.17639,0.0212 -8.34152,0.89005 -6.57317,4.90187 1.51503,3.43711 4.22327,4.53195 13.88219,5.61203 3.025,0.33826 6.19144,1.24038 7.03654,2.00471 0.84509,0.76433 3.65759,2.32794 6.25,3.47468 2.5924,1.14674 4.71346,2.53702 4.71346,3.0895 0,0.55248 2.20397,3.34392 4.89772,6.20321 10.67556,11.33159 12.94936,13.99954 14.69698,17.24468 2.38632,4.43113 0.89588,5.78423 -2.15236,1.95401 -7.05059,-8.85934 -12.06246,-14.42685 -13.01803,-14.46126 -0.59162,-0.02131 -2.13256,-1.16374 -3.42431,-2.53874 -1.29175,-1.375 -3.34009,-2.5 -4.55187,-2.5 -1.21178,0 -2.76344,-0.675 -3.44813,-1.5 -1.43807,-1.73277 -6.24354,-1.97521 -9.07845,-0.45801 -2.88756,1.54537 -1.01784,4.184 5.68035,8.01631 5.50761,3.15113 18.3981,14.36445 18.3981,16.00434 0,0.99924 -5.69871,-0.82961 -8.47251,-2.71903 -2.12679,-1.4487 -5.53713,-1.81597 -5.51218,-0.59361 0.026,1.27432 1.30094,2.62677 6.48469,6.87901 5.99904,4.92103 8.48536,5.8334 10.96192,4.0225 1.64986,-1.20641 2.14596,-1.01173 4.44754,1.74531 4.71563,5.6488 7.09054,9.49731 7.09054,11.49011 0,1.08235 1.2375,2.89075 2.75,4.01866 1.5125,1.12791 3.55618,2.83399 4.54152,3.79128 2.12715,2.06661 5.14187,0.75556 5.3148,-2.31131 0.0585,-1.03706 0.35948,-2.56056 0.6689,-3.38556 2.45514,-6.54617 3.31419,-23.50961 1.73758,-34.31124 -1.06674,-7.30842 -7.89934,-28.38727 -14.84677,-45.80294 -3.99084,-10.00414 -5.86987,-20.34479 -7.19441,-39.59212 -0.9541,-13.864435 -1.37608,-16.235366 -3.45452,-19.409348 -1.30221,-1.988607 -2.84995,-5.406753 -3.43942,-7.595881 -1.35156,-5.01929 -6.35617,-12.002605 -9.69043,-13.521798 -3.8107,-1.73627 -6.63061,-8.152188 -7.16273,-16.296798 -0.33927,-5.192705 -0.10192,-7.312175 0.90808,-8.109285 1.93295,-1.5255 7.40393,-2.41889 8.47157,-1.38337 0.4927,0.47789 2.24198,1.01601 3.88728,1.19583 1.84865,0.20205 3.11443,0.97576 3.31338,2.02532 0.27238,1.43695 -0.13802,1.56646 -2.66618,0.8414 -2.9763,-0.8536 -4.13865,-0.51818 -4.13865,1.19428 0,0.4954 0.93225,0.60484 2.07166,0.2432 2.74136,-0.87007 5.92947,2.05067 5.9246,5.427738 -0.002,1.427256 -0.86552,4.008319 -1.91882,5.735695 l -1.91508,3.140682 2.66882,2.531052 c 1.46785,1.392079 4.46882,2.848974 6.66882,3.237545 5.41638,0.956659 5.71079,1.16682 10.39884,7.423126 3.11159,4.152479 4.10116,6.384425 4.10116,9.25 0,2.077302 -0.3375,3.758466 -0.75,3.735922 -0.4125,-0.02255 -1.76212,-2.160045 -2.99917,-4.75 -2.89318,-6.057371 -5.27348,-8.977619 -7.64903,-9.384161 -1.56253,-0.267405 -1.90073,0.29407 -1.9125,3.175151 -0.0208,5.088728 1.25081,11.17707 2.855,13.669531 0.768,1.193241 2.33666,8.618241 3.48591,16.5 2.52051,17.285979 3.61875,21.758529 5.5222,22.488959 1.03073,0.39552 1.44759,2.20787 1.44759,6.29351 0,4.46803 0.44266,6.13863 2,7.548 1.1,0.99549 2,2.83309 2,4.08356 0,2.50326 2.39884,5.41644 4.46014,5.41644 1.80254,0 3.88219,12.44331 5.22281,31.25 0.46626,6.54083 1.68514,8.5603 3.03832,5.03396 1.09317,-2.84875 3.22077,3.53862 2.21887,6.66134 -0.45082,1.40509 -1.3505,11.29927 -1.9993,21.98709 -1.26486,20.83629 -2.90159,27.87661 -8.41902,36.214 -2.60386,3.9347 -5.52182,5.12787 -5.52182,2.2579 z m 9.29936,-15.80237 c 1.19311,-3.57933 0.22715,-4.38552 -2.41126,-2.01246 -2.33642,2.10146 -3.92179,5.45614 -3.17539,6.71924 0.81465,1.3786 4.62955,-1.83547 5.58665,-4.70678 z M 285.84476,12.92648 c 0.71755,-0.86459 0.81474,-1.5 0.22943,-1.5 -0.5585,0 -1.27447,0.675 -1.59106,1.5 -0.31658,0.825 -0.41982,1.5 -0.22943,1.5 0.19039,0 0.90637,-0.675 1.59106,-1.5 z m 83.45729,-5.4309 c 0.31644,-0.512 0.11799,-1.21356 -0.44098,-1.55902 -0.55897,-0.34546 -1.01631,0.0734 -1.01631,0.9309 0,1.75653 0.60006,2.01516 1.45729,0.62812 z m 7.38266,15.34757 C 375.96557,9.7377 376.02776,8.55947 377.41069,9.09016 c 1.09868,0.4216 1.26158,2.14565 0.7734,8.18521 -0.66022,8.16797 -1.2388,10.31646 -1.49938,5.56778 z m -1.761,-18 c 0.048,-1.16495 0.28494,-1.4019 0.60416,-0.60417 0.28887,0.72187 0.25335,1.58437 -0.0789,1.91667 -0.3323,0.33229 -0.56864,-0.25834 -0.52522,-1.3125 z m -1,-4 c 0.048,-1.16495 0.28494,-1.4019 0.60416,-0.60417 0.28887,0.72187 0.25335,1.58437 -0.0789,1.91667 -0.3323,0.33229 -0.56864,-0.25834 -0.52522,-1.3125 z m -1.05097,-4.84308 c -1.00012,-2.63052 -1.48058,-11.35953 -0.57543,-10.45437 0.62668,0.62667 2.42881,12.29016 1.97302,12.76947 -0.20329,0.21378 -0.8322,-0.82802 -1.39759,-2.3151 z"
       id="path3750"
       inkscape:connector-curvature="0" />
    <path
       style="fill:#522f2f"
       d="m 247.66255,145.04855 c -5.76421,-3.42733 -7.39129,-5.27762 -11.39118,-12.95385 -2.05435,-3.94252 -5.02523,-8.81994 -6.60196,-10.83872 -3.86594,-4.94978 -6.65608,-11.57657 -6.66485,-15.8295 -0.004,-1.925 -2.0663,-9.65849 -4.58295,-17.18553 -4.18562,-12.5187 -4.69907,-15.14838 -6.02218,-30.84293 -0.92322,-10.95115 -1.9617,-17.94379 -2.87089,-19.3314 -1.55922,-2.37967 -3.01798,-10.46703 -4.80523,-26.64014 -1.36468,-12.34922 -0.55543,-42.74568 1.1826,-44.42019 0.82691,-0.79669 0.94127,2.67604 0.43617,13.24512 -0.42573,8.90804 -0.27957,16.66 0.38651,20.5 0.58911,3.39629 1.95421,12.71585 3.03356,20.71015 1.07936,7.99429 3.1145,18.06423 4.52254,22.37764 1.40804,4.31341 2.56007,8.80667 2.56007,9.98502 0,1.17835 0.89413,5.36903 1.98695,9.31261 1.1617,4.19214 1.73688,8.42049 1.38486,10.1806 -0.46119,2.30597 0.3285,4.83559 3.37459,10.80975 2.18717,4.28962 4.24521,8.9243 4.57341,10.2993 0.32821,1.375 1.62801,2.95 2.88846,3.5 2.31722,1.01112 3.83632,5.5 1.86128,5.5 -1.44805,0 -1.35805,3.3115 0.13045,4.8 1.91843,1.91843 4.51557,1.39093 5.16971,-1.05 0.33164,-1.2375 0.62344,-4.275 0.64844,-6.75 0.0402,-3.97841 0.20085,-4.29523 1.38609,-2.73333 2.04376,2.69326 2.92107,14.92063 1.5198,21.18214 -0.66214,2.95875 -0.90654,6.15441 -0.54311,7.10148 0.61273,1.59676 0.79221,1.603 2.46866,0.0858 0.99434,-0.89984 3.40759,-1.63609 5.36279,-1.63609 2.89705,0 4.24535,0.76425 7.28601,4.12989 3.42679,3.79306 3.69106,4.50672 3.24007,8.75 -0.79499,7.48002 -2.24201,10.13529 -5.46371,10.02585 -1.52611,-0.0519 -4.43174,-1.0795 -6.45696,-2.28367 z m 116.18221,-38.57502 c 0,-3.36865 -2.15613,-6.86942 -4.61024,-7.48536 -1.52453,-0.38264 -2.57115,-1.55976 -2.95805,-3.32692 -1.22845,-5.61085 -1.45001,-5.90394 -2.9366,-3.88463 -1.42062,1.92971 -3.49511,1.47545 -3.49511,-0.76535 0,-1.67192 -5.98438,-9.69673 -11.99498,-16.08479 -2.58751,-2.75 -6.14956,-7.06942 -7.91566,-9.5987 -2.7493,-3.93736 -20.21317,-20.49124 -28.46714,-26.98382 -1.44222,-1.13445 -2.62222,-2.70498 -2.62222,-3.49006 0,-1.82038 -1.68794,-1.80162 -7.0153,0.078 -3.11566,1.09927 -4.62105,1.21137 -5.58,0.41551 -0.856,-0.71042 -3.60553,-0.84441 -7.897,-0.38483 -5.24797,0.56201 -6.93111,0.39239 -8.29573,-0.83602 -0.94158,-0.84761 -4.86197,-3.21509 -8.71197,-5.26108 -8.03141,-4.2681 -10.35211,-6.17509 -14.10499,-11.5905 -4.35237,-6.28048 -1.85156,-5.69383 4.19067,0.98305 3.84714,4.25123 6.31845,6.16845 7.95117,6.16845 3.43872,0 7.33436,2.01887 8.01132,4.15176 0.35698,1.12475 1.53089,1.84824 2.99889,1.84824 1.82497,0 2.93161,-1.01795 4.54529,-4.18103 2.04352,-4.00562 2.05733,-4.23635 0.3292,-5.5 -0.9921,-0.72543 -2.54806,-1.31897 -3.45769,-1.31897 -1.59044,0 -4.96386,-2.9418 -4.96386,-4.32874 0,-0.36919 2.44436,-0.67126 5.43191,-0.67126 4.8465,0 5.65339,-0.31105 7.4871,-2.88626 2.6079,-3.66246 9.40061,-6.54824 12.06152,-5.12416 1.03839,0.55573 3.35358,1.01042 5.14486,1.01042 2.95929,0 3.09024,0.12184 1.43323,1.33348 -1.61695,1.18234 -1.68417,1.75606 -0.59311,5.06202 0.83762,2.538 2.07731,4.02817 3.88251,4.66695 1.45859,0.51613 3.43337,1.38822 4.38841,1.93798 0.95504,0.54976 3.13703,0.99957 4.84887,0.99957 1.71184,0 4.53045,0.64248 6.26357,1.42773 1.73312,0.78525 5.28863,2.37149 7.90113,3.52499 2.6125,1.1535 4.75,2.52102 4.75,3.03894 0,0.51792 1.59,2.53167 3.53333,4.47501 2.30532,2.30531 3.00042,3.53333 2,3.53333 -0.84333,0 -2.43333,-0.9 -3.53333,-2 -1.1,-1.1 -3.0699,-2 -4.37756,-2 -1.30765,0 -2.93775,-0.675 -3.62244,-1.5 -1.32662,-1.59848 -7.63157,-2.0204 -9.78387,-0.65474 -2.35037,1.49135 -0.0596,4.1887 8.1593,9.60726 4.46851,2.94602 9.19174,6.80512 10.49606,8.57577 1.30432,1.77065 1.97932,3.02742 1.5,2.79281 -8.35934,-4.09159 -12.37149,-4.46892 -12.37149,-1.1635 0,0.83756 3.9375,5.68282 8.75,10.76725 4.8125,5.08443 11.59241,12.46883 15.06646,16.40978 3.47406,3.94095 6.93167,7.16537 7.68358,7.16537 0.75191,0 1.50951,-1.19503 1.68354,-2.65563 l 0.31642,-2.65562 3.23011,2.72778 c 1.93079,1.63053 4.12828,2.5982 5.46297,2.40563 2.26246,-0.32643 2.41196,-0.67788 4.8163,-11.32216 1.68521,-7.46065 1.1623,-27.50882 -0.931,-35.69352 -1.82876,-7.15039 -8.38464,-26.19895 -13.57799,-39.4518 -4.47936,-11.43081 -6.54563,-24.59813 -7.75011,-49.387653 -0.25253,-5.197391 -0.85392,-7.241761 -2.94168,-10 -1.44333,-1.906865 -3.11477,-5.31156 -3.7143,-7.565988 -1.43576,-5.398942 -4.82848,-10.306726 -9.1181,-13.189901 -1.91191,-1.28505 -4.3357,-3.995758 -5.38619,-6.023796 -2.46187,-4.752754 -3.43079,-17.269342 -1.45741,-18.826752 1.9759,-1.55939 7.68587,-2.46333 8.38764,-1.32783 0.32879,0.53198 1.87309,0.96724 3.43179,0.96724 1.5587,0 3.05605,0.57868 3.32746,1.28595 0.35872,0.93481 -0.43123,1.17799 -2.89302,0.89059 -4.38143,-0.51151 -4.77282,2.29619 -0.44085,3.16258 4.16494,0.83299 5.47396,3.720918 3.65733,8.068719 -1.1711,2.802843 -2.05999,3.513675 -4.71789,3.772836 l -3.27493,0.319325 6.19844,3.81344 c 3.40915,2.097392 7.66701,4.051755 9.46192,4.343029 3.84402,0.623798 4.99214,1.440224 9.97951,7.096412 3.49546,3.964204 4.82539,7.247119 2.93585,7.247119 -0.44778,0 -2.30973,-1.99607 -4.13768,-4.43571 -4.81215,-6.422466 -12.04361,-8.730187 -12.05078,-3.845675 -0.003,1.922371 2.19975,12.150703 4.68236,21.743999 0.84867,3.279438 1.68396,6.879438 1.85621,8 2.09106,13.604046 4.61538,24.657076 6.83081,29.909506 0.89828,2.12967 1.63323,4.7063 1.63323,5.72583 0,1.01954 0.86802,3.28106 1.92894,5.02559 1.06091,1.74454 2.71664,6.14291 3.6794,9.77417 0.96276,3.63126 2.56974,7.67548 3.57106,8.98715 1.03273,1.3528 1.8206,4.0513 1.8206,6.23565 0,2.11793 0.43001,5.76975 0.95558,8.11514 1.04289,4.65396 2.53504,12.84334 4.60329,25.26435 1.44384,8.67102 1.88792,32.24885 0.64426,34.20557 -0.42144,0.66306 -0.6584,-2.71194 -0.52658,-7.5 l 0.23967,-8.70557 -2.44524,5 c -1.34489,2.75 -2.45104,5.73502 -2.45811,6.63337 -0.007,0.89835 -0.90745,1.86731 -2.00083,2.15323 -2.0257,0.52973 -3.2647,2.8516 -4.38286,8.2134 -0.9086,4.35689 0.29307,5.66948 4.17195,4.55704 4.11645,-1.18059 4.29394,0.75527 0.56287,6.13921 -2.85067,4.11351 -5.364,4.98072 -5.364,1.8508 z M 292.40363,27.92648 c 1.92151,-1.48484 1.92151,-1.51516 0,-3 -1.06762,-0.825 -2.2748,-1.5 -2.68261,-1.5 -1.06791,0 -2.11932,3.7977 -1.38179,4.99105 0.85375,1.3814 1.78724,1.26861 4.0644,-0.49105 z m -8.91561,-1.01273 c 0.61003,-1.58971 -1.21939,-4.48727 -2.83309,-4.48727 -0.51972,0 -0.65836,0.90294 -0.3081,2.00653 0.47532,1.49759 0.0485,2.24243 -1.68261,2.93661 -2.14743,0.8611 -2.07608,0.93479 0.96192,0.99347 2.05174,0.0396 3.49892,-0.50349 3.86188,-1.44934 z m 3.18938,-13.42863 c 3.54882,-4.41604 3.77378,-5.05864 1.77095,-5.05864 -1.82365,0 -7.82059,6.83987 -7.06659,8.05987 1.00948,1.63337 2.04094,1.04881 5.29564,-3.00123 z m 50.16736,-108.55864 c 0,-0.825 -0.42344,-1.5 -0.94098,-1.5 -1.26098,0 -2.1641,1.561589 -1.36517,2.36052 1.12619,1.126184 2.30615,0.68589 2.30615,-0.86052 z m 11.77797,148.23967 c -1.52113,-1.19649 -3.43147,-5.73967 -2.41345,-5.73967 0.7987,0 4.89831,6.0705 4.42157,6.54724 -0.23765,0.23765 -1.1413,-0.12576 -2.00812,-0.80757 z M 218.18984,17.88335 c -0.32569,-0.84872 -0.36872,-1.76657 -0.0956,-2.03966 0.27309,-0.2731 0.73656,0.42131 1.02992,1.54313 0.62315,2.38293 -0.0692,2.75089 -0.9343,0.49653 z M 302.84476,6.42648 c 1.96287,-1.2685 5.71602,-1.2685 6.5,0 0.37598,0.60835 -1.0696,0.994 -3.69098,0.98469 -3.15059,-0.0112 -3.90576,-0.27592 -2.80902,-0.98469 z M 267.8859,4.97605 c -0.66206,-0.79773 -3.60986,-2.80835 -6.55067,-4.46804 -6.4164,-3.62119 -22.50395,-17.97082 -25.7769,-22.99226 -1.28671,-1.9741 -3.3956,-6.51427 -4.68641,-10.08927 -1.29081,-3.575 -2.94998,-7.210433 -3.68704,-8.078741 -0.73707,-0.868307 -1.32393,-2.443307 -1.30414,-3.5 0.0321,-1.712394 0.25626,-1.649478 2.06235,0.578741 2.603,3.211392 6.0888,8.32013 9.55249,14 4.14478,6.79675 17.25148,22.87967 19.69581,24.16827 3.40217,1.79354 13.65337,10.03696 13.65337,10.97925 0,1.33158 -1.63105,1.00196 -2.95886,-0.59795 z m -55.46252,-51.205296 c -0.31824,-0.829317 -0.57862,-2.806921 -0.57862,-4.394677 0,-2.288319 -0.34698,-2.753679 -1.67361,-2.244603 -1.29035,0.495154 -1.51935,0.240236 -1,-1.113173 0.37049,-0.965468 0.67361,-2.393592 0.67361,-3.173608 0,-0.780017 0.45,-1.418213 1,-1.418213 0.55,0 1,0.9 1,2 0,2.425283 0.87356,2.555175 2.47306,0.367725 1.09785,-1.501389 1.42743,-1.485565 4.11025,0.19734 1.60418,1.006288 3.05328,1.914906 3.22023,2.019149 0.16695,0.104244 -1.71017,2.232169 -4.17138,4.728722 -3.39354,3.442268 -4.61475,4.174807 -5.05354,3.031338 z"
       id="path3748"
       inkscape:connector-curvature="0" />
    <path
       style="fill:#2c1a1a"
       d="m 252.21055,145.93734 c -0.31429,-0.81903 -2.21267,-1.95133 -4.21861,-2.51623 -2.00595,-0.56489 -4.40068,-1.60703 -5.32163,-2.31585 -2.56105,-1.97117 -6.82555,-10.62391 -6.82555,-13.84916 0,-2.08233 -0.67775,-3.1813 -2.46381,-3.99508 -2.74983,-1.25291 -6.99125,-7.00741 -7.98573,-10.83454 l -0.64963,-2.5 2.33715,2.75 c 2.83606,3.33704 3.5271,3.42468 3.94247,0.5 0.26091,-1.8371 0.95304,-2.25 3.77164,-2.25 3.76799,0 4.74748,-1.64474 4.94823,-8.30902 0.0582,-1.9311 0.51609,-3.05166 1.09968,-2.69098 1.34206,0.82944 1.26687,10.32107 -0.14235,17.96915 -0.62829,3.40986 -0.82887,7.8707 -0.44574,9.91297 l 0.6966,3.71323 2.84696,-3.04768 c 3.36206,-3.5991 6.68518,-3.90478 10.42965,-0.95937 4.64143,3.65094 5.99612,7.44482 4.56787,12.79252 -1.61957,6.06409 -5.23489,9.15408 -6.5872,5.63004 z m -0.3409,-10.07633 c 1.22063,-3.21051 -0.31262,-6.43453 -3.06007,-6.43453 -1.08065,0 -1.96482,0.45 -1.96482,1 0,0.55 0.64844,1 1.44098,1 2.14832,0 2.90354,1.87996 1.45593,3.62422 -0.73525,0.88591 -2.25752,1.34884 -3.59484,1.09319 -1.86729,-0.35695 -2.099,-0.17765 -1.18837,0.91959 1.94033,2.33796 5.82189,1.66261 6.91119,-1.20247 z m -16.52489,-19.43453 c 1.07686,-1.74239 -0.51929,-3.22888 -2.07802,-1.93525 -0.76998,0.63902 -1.15336,1.56088 -0.85195,2.04856 0.72948,1.18032 2.16477,1.12481 2.92997,-0.11331 z m 70.75,-80.68933 c 0.9625,-0.25152 2.5375,-0.25152 3.5,0 0.9625,0.25153 0.175,0.45733 -1.75,0.45733 -1.925,0 -2.7125,-0.2058 -1.75,-0.45733 z m -31.93173,-3.70534 c 0.87267,-1.84917 1.87988,-2.37341 4.42157,-2.30137 1.87205,0.0531 4.02435,-0.63958 4.99093,-1.60616 1.59928,-1.59928 1.59676,-1.87332 -0.0428,-4.64891 -1.68551,-2.85334 -1.67622,-2.9848 0.28489,-4.03435 1.11494,-0.5967 2.02716,-1.72513 2.02716,-2.50762 0,-2.01751 7.63347,-9.79576 9.12538,-9.29846 0.77228,0.25743 1.26549,2.46527 1.30737,5.85246 0.0591,4.78248 -0.17253,5.43908 -1.91905,5.43908 -1.09667,0 -2.13726,-0.7838 -2.32333,-1.75 -0.20117,-1.04461 0.27337,-1.75 1.17729,-1.75 1.96072,0 3.12802,-1.90432 1.91243,-3.11991 -1.50142,-1.50142 -4.23819,0.10477 -4.93948,2.89893 -0.89844,3.57968 2.55565,6.22098 8.13532,6.22098 2.74016,0 5.1593,0.71183 6.79694,2 1.51382,1.19077 4.09722,2.01287 6.38486,2.0318 3.81542,0.0316 7.90748,2.06965 6.66006,3.31708 -1.14471,1.14471 -7.10519,0.69957 -11.7505,-0.87755 -3.69153,-1.25331 -4.8687,-1.30005 -6.53495,-0.25946 -1.11778,0.69807 -2.03234,1.59942 -2.03234,2.003 0,1.04774 -6.06901,4.04946 -6.77003,3.34844 -0.32129,-0.3213 0.62053,-1.8416 2.09293,-3.37846 3.34869,-3.49527 3.37527,-4.96891 0.112,-6.2096 -4.49364,-1.70848 -5.27308,-1.23718 -6.00292,3.6298 -0.60037,4.00352 -1.12667,4.78726 -4.02916,6 -1.83622,0.76722 -4.8857,1.39495 -6.77662,1.39495 -3.27486,0 -3.38439,-0.11366 -2.30793,-2.39467 z m -2.56827,-13.68543 c -2.80489,-1.6337 -2.03001,-2.9199 1.7591,-2.9199 2.53473,0 4.38077,-0.83301 6.64832,-3 3.93566,-3.76113 6.11861,-3.96692 2.65186,-0.25 -1.4107,1.5125 -3.08572,3.7625 -3.72228,5 -1.23518,2.40127 -4.36582,2.90046 -7.337,1.1699 z m 69.69348,-84.400935 c -0.79996,-1.914569 -1.79127,-5.852069 -2.20291,-8.75 -0.74605,-5.252153 -0.76438,-5.274233 -5.7445,-6.919839 -3.24693,-1.072899 -5.56886,-2.589629 -6.63215,-4.332246 -2.15344,-3.529292 -4.15558,-13.91247 -3.37126,-17.48348 0.56321,-2.56426 0.99389,-2.81306 4.63928,-2.68004 4.47347,0.16324 4.29591,-0.6799 2.29618,10.903899 -0.87579,5.073164 1.05867,7.775462 8.49112,11.861475 4.69046,2.578595 5.74843,3.576778 4.8888,4.612559 -0.71297,0.859083 -0.87586,3.938157 -0.46528,8.795271 0.34745,4.11039 0.38951,7.473436 0.0935,7.473436 -0.29605,0 -1.19278,-1.566466 -1.99274,-3.481035 z m 12.2386,-9.268965 c -0.96057,-0.9625 -3.1945,-2.278265 -4.96429,-2.923922 -2.6195,-0.955654 -2.80238,-1.188067 -0.98357,-1.25 1.82159,-0.06203 10.00282,5.797606 8.23007,5.894609 -0.29465,0.01612 -1.32164,-0.758187 -2.28221,-1.720687 z m -21.01541,-15.916667 c -0.36667,-0.366666 -0.63815,-1.829166 -0.60328,-3.25 0.0623,-2.540517 0.0784,-2.546041 0.96777,-0.333333 1.01154,2.516582 3.73989,3.010212 4.57723,0.828141 0.30009,-0.782023 0.0451,-2.357023 -0.56657,-3.5 -0.89133,-1.665456 -0.82071,-2.078141 0.35561,-2.078141 2.02443,0 2.8559,3.2035 1.65279,6.367918 -0.96367,2.534632 -4.67245,3.676519 -6.38355,1.965415 z"
       id="path3746"
       inkscape:connector-curvature="0" />
  </g>
</svg>
